<svg xmlns="http://www.w3.org/2000/svg" width="196.36" height="29.08" viewBox="0 0 196.36 29.08"><path d="M-97.38-28.56V0h5.88V-20.04h.08l7,20.04h4.84l7-20.24h.08V0h5.88V-28.56h-8.84L-81.78-8.92h-.08l-6.68-19.64ZM-47.82-10.4a12.617,12.617,0,0,1-.24,2.48,6.722,6.722,0,0,1-.8,2.14,4.254,4.254,0,0,1-1.5,1.5,4.5,4.5,0,0,1-2.34.56,4.221,4.221,0,0,1-2.26-.58,4.99,4.99,0,0,1-1.56-1.52,6.554,6.554,0,0,1-.9-2.14,10.531,10.531,0,0,1-.28-2.4,11.4,11.4,0,0,1,.26-2.46,6.542,6.542,0,0,1,.84-2.1,4.428,4.428,0,0,1,1.54-1.48,4.614,4.614,0,0,1,2.36-.56,4.4,4.4,0,0,1,2.32.56,4.617,4.617,0,0,1,1.5,1.46,6.012,6.012,0,0,1,.82,2.08A12.317,12.317,0,0,1-47.82-10.4Zm.08,7.76V0h5.4V-28.56h-5.68v10.4h-.08a6.1,6.1,0,0,0-2.62-2.3,8.132,8.132,0,0,0-3.5-.78,8.507,8.507,0,0,0-4,.9,8.576,8.576,0,0,0-2.86,2.38,10.448,10.448,0,0,0-1.72,3.42,13.959,13.959,0,0,0-.58,4.02,14.86,14.86,0,0,0,.58,4.16,11.073,11.073,0,0,0,1.72,3.54,8.19,8.19,0,0,0,2.9,2.44,8.842,8.842,0,0,0,4.08.9,8.713,8.713,0,0,0,3.66-.74,5.859,5.859,0,0,0,2.62-2.42Zm9.48-25.92V0h5.88V-19.12h.08L-20.42,0h6.28V-28.56h-5.88V-9.4h-.08L-32.02-28.56ZM7.22-23.28V0H13.5V-23.28h8.56v-5.28H-1.34v5.28ZM24.54-10.32a12.411,12.411,0,0,1,.24-2.44,6.225,6.225,0,0,1,.82-2.12,4.606,4.606,0,0,1,1.54-1.5,4.571,4.571,0,0,1,2.4-.58,4.679,4.679,0,0,1,2.42.58,4.548,4.548,0,0,1,1.56,1.5,6.225,6.225,0,0,1,.82,2.12,12.411,12.411,0,0,1,.24,2.44,12.112,12.112,0,0,1-.24,2.42,6.447,6.447,0,0,1-.82,2.12,4.318,4.318,0,0,1-1.56,1.5,4.813,4.813,0,0,1-2.42.56,4.7,4.7,0,0,1-2.4-.56,4.367,4.367,0,0,1-1.54-1.5,6.447,6.447,0,0,1-.82-2.12A12.112,12.112,0,0,1,24.54-10.32Zm-5.68,0a12.531,12.531,0,0,0,.76,4.48,9.719,9.719,0,0,0,2.16,3.42A9.449,9.449,0,0,0,25.14-.24a12.088,12.088,0,0,0,4.4.76,12.249,12.249,0,0,0,4.42-.76,9.414,9.414,0,0,0,3.38-2.18A9.718,9.718,0,0,0,39.5-5.84a12.531,12.531,0,0,0,.76-4.48,12.7,12.7,0,0,0-.76-4.5,9.684,9.684,0,0,0-2.16-3.44,9.64,9.64,0,0,0-3.38-2.2,11.968,11.968,0,0,0-4.42-.78,11.811,11.811,0,0,0-4.4.78,9.679,9.679,0,0,0-3.36,2.2,9.684,9.684,0,0,0-2.16,3.44A12.7,12.7,0,0,0,18.86-10.32ZM62.54,0V-20.68H56.86V-9.84A7.672,7.672,0,0,1,55.82-5.3a3.935,3.935,0,0,1-3.36,1.38,3.1,3.1,0,0,1-2.84-1.26A7.247,7.247,0,0,1,48.82-9V-20.68H43.14V-7.96a16.668,16.668,0,0,0,.34,3.5,6.656,6.656,0,0,0,1.18,2.68,5.4,5.4,0,0,0,2.3,1.7,9.935,9.935,0,0,0,3.74.6,8.264,8.264,0,0,0,3.52-.8,6.39,6.39,0,0,0,2.8-2.6h.12V0Zm3.52-20.68V0h5.68V-9.32a11.43,11.43,0,0,1,.28-2.6,5.694,5.694,0,0,1,.94-2.1,4.572,4.572,0,0,1,1.74-1.42,6.051,6.051,0,0,1,2.64-.52,10.144,10.144,0,0,1,1.08.06q.56.06.96.14v-5.28a4.43,4.43,0,0,0-1.24-.2,6.783,6.783,0,0,0-2.08.32,7.622,7.622,0,0,0-1.88.9,7.076,7.076,0,0,0-1.56,1.4,6.986,6.986,0,0,0-1.08,1.78h-.08v-3.84ZM85.22-6.72h-5.4a6.954,6.954,0,0,0,.94,3.46,6.864,6.864,0,0,0,2.2,2.22A9.291,9.291,0,0,0,86.02.16a17.136,17.136,0,0,0,3.52.36A17.6,17.6,0,0,0,93,.18,8.772,8.772,0,0,0,96.02-1a6.562,6.562,0,0,0,2.14-2.22,6.594,6.594,0,0,0,.82-3.42,4.813,4.813,0,0,0-.56-2.42,5.126,5.126,0,0,0-1.48-1.64,7.961,7.961,0,0,0-2.1-1.06,24,24,0,0,0-2.42-.68q-1.2-.28-2.36-.52A18.251,18.251,0,0,1,88-13.5a4.317,4.317,0,0,1-1.46-.78,1.558,1.558,0,0,1-.56-1.24,1.532,1.532,0,0,1,.32-1.02,2.1,2.1,0,0,1,.78-.58,3.472,3.472,0,0,1,1.02-.26,9.8,9.8,0,0,1,1.04-.06,5.668,5.668,0,0,1,2.64.58,2.485,2.485,0,0,1,1.24,2.22h5.4a6.785,6.785,0,0,0-.98-3.18,6.474,6.474,0,0,0-2.06-2.02,8.623,8.623,0,0,0-2.82-1.08,16.384,16.384,0,0,0-3.26-.32,17.761,17.761,0,0,0-3.28.3,9.032,9.032,0,0,0-2.88,1.04,5.75,5.75,0,0,0-2.06,2.02,6.222,6.222,0,0,0-.78,3.28,4.421,4.421,0,0,0,.56,2.3,4.863,4.863,0,0,0,1.48,1.56,8.27,8.27,0,0,0,2.1,1q1.18.38,2.42.66A33.949,33.949,0,0,1,91.6-7.8q1.7.64,1.7,1.92a2.1,2.1,0,0,1-.36,1.26,2.728,2.728,0,0,1-.9.8,4.287,4.287,0,0,1-1.2.44,6.075,6.075,0,0,1-1.26.14,6.5,6.5,0,0,1-1.62-.2,4.2,4.2,0,0,1-1.38-.62,3.32,3.32,0,0,1-.98-1.08A3.115,3.115,0,0,1,85.22-6.72Z" transform="translate(97.38 28.56)" fill="#2a2936"/></svg>